<svg viewBox="0 0 20 20" class="EditorHeaderViewSwitcher_iconPen-jP26l">
    <title>Change Layout</title>
    <path d="M0 9.002C0 8.45.455 8 .992 8h18.016c.548 0 .992.456.992 1.002v9.996c0 .553-.455 1.002-.992 1.002H.992C.444 20 0 19.544 0 18.998V9.002Zm0-8C0 .45.451 0 .99 0h4.02A.99.99 0 0 1 6 1.003v4.994C6 6.551 5.549 7 5.01 7H.99A.99.99 0 0 1 0 5.997V1.003Zm7 0C7 .45 7.451 0 7.99 0h4.02A.99.99 0 0 1 13 1.003v4.994C13 6.551 12.549 7 12.01 7H7.99A.99.99 0 0 1 7 5.997V1.003Zm7 0C14 .45 14.451 0 14.99 0h4.02A.99.99 0 0 1 20 1.003v4.994C20 6.551 19.549 7 19.01 7h-4.02A.99.99 0 0 1 14 5.997V1.003Z"></path>
</svg>